<svg xmlns="http://www.w3.org/2000/svg" xmlns:xlink="http://www.w3.org/1999/xlink" viewBox="0 0 3001.25 857.2"><defs><style>.cls-1{fill:#1d1d1b;}.cls-2{fill:url(#linear-gradient);}.cls-3{fill:url(#linear-gradient-2);}.cls-4{fill:url(#radial-gradient);}.cls-5{fill:#fff;}.cls-6{fill:url(#linear-gradient-3);}.cls-7{fill:url(#linear-gradient-4);}.cls-8{fill:url(#radial-gradient-2);}.cls-9{fill:url(#linear-gradient-5);}.cls-10{fill:url(#linear-gradient-6);}.cls-11{fill:url(#radial-gradient-3);}</style><linearGradient id="linear-gradient" x1="1264.2" y1="97.93" x2="1737.05" y2="570.79" gradientUnits="userSpaceOnUse"><stop offset="0" stop-color="#f5f5f5"/><stop offset="0.06" stop-color="#ebebeb"/><stop offset="0.17" stop-color="#d0cfcf"/><stop offset="0.31" stop-color="#a4a3a3"/><stop offset="0.42" stop-color="#7c7b7b"/><stop offset="0.44" stop-color="#898888"/><stop offset="0.48" stop-color="#abaaaa"/><stop offset="0.53" stop-color="#e1e1e1"/><stop offset="0.54" stop-color="#f5f5f5"/><stop offset="0.59" stop-color="#efefef"/><stop offset="0.66" stop-color="#ddd"/><stop offset="0.75" stop-color="#c0bfbf"/><stop offset="0.84" stop-color="#979696"/><stop offset="0.89" stop-color="#7c7b7b"/><stop offset="0.99" stop-color="#c6c6c5"/></linearGradient><linearGradient id="linear-gradient-2" x1="1264.2" y1="570.79" x2="1737.05" y2="97.93" xlink:href="#linear-gradient"/><radialGradient id="radial-gradient" cx="1500.63" cy="334.36" r="289.47" gradientUnits="userSpaceOnUse"><stop offset="0.56" stop-color="#008137"/><stop offset="0.63" stop-color="#017934"/><stop offset="0.74" stop-color="#02642a"/><stop offset="0.88" stop-color="#04411c"/><stop offset="1" stop-color="#071d0c"/></radialGradient><linearGradient id="linear-gradient-3" x1="2430.47" y1="97.93" x2="2903.32" y2="570.79" xlink:href="#linear-gradient"/><linearGradient id="linear-gradient-4" x1="2430.47" y1="570.79" x2="2903.32" y2="97.93" xlink:href="#linear-gradient"/><radialGradient id="radial-gradient-2" cx="2666.89" cy="334.36" r="289.47" xlink:href="#radial-gradient"/><linearGradient id="linear-gradient-5" x1="97.93" y1="97.93" x2="570.79" y2="570.79" xlink:href="#linear-gradient"/><linearGradient id="linear-gradient-6" x1="97.93" y1="570.79" x2="570.79" y2="97.93" xlink:href="#linear-gradient"/><radialGradient id="radial-gradient-3" cx="334.36" cy="334.36" r="289.47" xlink:href="#radial-gradient"/></defs><title>Asset 4</title><g id="Layer_2" data-name="Layer 2"><g id="Layer_1-2" data-name="Layer 1"><path class="cls-1" d="M35.06,768.36c-5.58,0-9-3.32-9-8s3.46-8,9-8H95.28c5.57,0,9,3.32,9,8s-3.47,8-9,8H75a.8.8,0,0,0-.91.9V846.2c0,5.72-3.77,9.34-8.88,9.34s-8.89-3.62-8.89-9.34V769.26a.79.79,0,0,0-.9-.9Z"/><path class="cls-1" d="M115.39,761c0-5.72,3.76-9.33,8.88-9.33s8.88,3.61,8.88,9.33v33.28a.8.8,0,0,0,.91.9h39a.81.81,0,0,0,.92-.9V761c0-5.72,3.76-9.33,8.88-9.33s8.88,3.61,8.88,9.33V846.2c0,5.72-3.77,9.34-8.88,9.34S174,851.92,174,846.2V812a.81.81,0,0,0-.92-.9h-39a.8.8,0,0,0-.91.9V846.2c0,5.72-3.75,9.34-8.88,9.34s-8.88-3.62-8.88-9.34Z"/><path class="cls-1" d="M207.4,803.59c0-15.21.76-21.08,2.86-28.15,5.27-16.12,17.92-24.7,35.54-24.7,14.3,0,25.74,6.63,30.86,16.72a10.61,10.61,0,0,1,1.51,5.27,7.89,7.89,0,0,1-8.13,8c-3,0-5.42-1.36-7.83-4.82-4.06-6.17-8.88-9.19-16.41-9.19-9.79,0-15.66,5.13-18.37,13.41-1.35,4.35-2,8.88-2,23.48s.61,19.13,2,23.49c2.71,8.29,8.58,13.4,18.37,13.4,7.53,0,12.35-3,16.41-9.19,2.41-3.46,4.82-4.81,7.83-4.81a7.92,7.92,0,0,1,8.13,8.13,10.55,10.55,0,0,1-1.51,5.12c-5.12,10.09-16.56,16.72-30.86,16.72-17.62,0-30.27-8.59-35.54-24.71C208.16,824.67,207.4,818.8,207.4,803.59Z"/><path class="cls-1" d="M324.18,760.37c0-4.82,3-8,8-8H383.2c5.57,0,9,3.32,9,8s-3.46,8-9,8H342.84a.8.8,0,0,0-.9.9v26a.79.79,0,0,0,.9.9h32.83c5.57,0,9,3.32,9,8s-3.46,8-9,8H342.84a.79.79,0,0,0-.9.9V846.2c0,5.72-3.76,9.34-8.88,9.34s-8.88-3.62-8.88-9.34Z"/><path class="cls-1" d="M461,850l-18.52-36.6H423.4a.81.81,0,0,0-.9.92V846.2c0,5.72-3.62,9.34-8.89,9.34s-8.88-3.62-8.88-9.34V760.37c0-4.82,3-8,8-8h33.13c18.82,0,32.67,12.51,32.67,30.57a29,29,0,0,1-18.21,27.56L477,841.69a11.56,11.56,0,0,1,1.35,5.41,8.19,8.19,0,0,1-8.58,8.44C466,855.54,463,853.88,461,850Zm-.14-67c0-8.88-6.32-14.6-15.67-14.6H423.4a.8.8,0,0,0-.9.9v27.26a.8.8,0,0,0,.9.9h21.83C454.58,797.42,460.9,791.7,460.9,783Z"/><path class="cls-1" d="M493.42,760.37c0-4.82,3-8,8-8h51.05c5.57,0,9,3.32,9,8s-3.46,8-9,8H512.08a.8.8,0,0,0-.9.9v25a.8.8,0,0,0,.9.9h32.83c5.57,0,9,3.31,9,8s-3.46,8-9,8H512.08a.8.8,0,0,0-.9.9v25.91a.8.8,0,0,0,.9.9h40.36c5.57,0,9,3.31,9,8s-3.46,8-9,8H501.39c-5,0-8-3.16-8-8Z"/><path class="cls-1" d="M574.65,760.37c0-4.82,3-8,8-8h51c5.57,0,9,3.32,9,8s-3.46,8-9,8H593.31a.8.8,0,0,0-.9.9v25a.8.8,0,0,0,.9.9h32.83c5.57,0,9,3.31,9,8s-3.46,8-9,8H593.31a.8.8,0,0,0-.9.9v25.91a.8.8,0,0,0,.9.9h40.36c5.57,0,9,3.31,9,8s-3.46,8-9,8h-51c-5,0-8-3.16-8-8Z"/><path class="cls-1" d="M1041.39,772.42h-.3l-11.3,8a8.78,8.78,0,0,1-5.11,1.51,7.32,7.32,0,0,1-7.07-7.38c0-2.7,1.64-5.27,4.51-7.38l16.41-11.6c3.62-2.55,6.78-3.9,10.54-3.9,5.57,0,9.18,3.9,9.18,9.93v85.07c0,5.58-3.46,8.89-8.43,8.89s-8.43-3.31-8.43-8.89Z"/><path class="cls-1" d="M1084,803.59c0-23.79.76-28.6,2.11-32.82,4.07-12.8,13.85-20,29.06-20s25,7.23,29.22,20c1.35,4.22,2.11,9,2.11,32.82s-.76,28.61-2.11,32.83c-4.22,12.79-14,20-29.22,20s-25-7.24-29.06-20C1084.79,832.2,1084,827.38,1084,803.59Zm31.17,37.79c6.33,0,10.7-2.71,12.65-8.12,1.05-3.16,1.35-6.63,1.35-29.67s-.3-26.49-1.35-29.67c-1.95-5.41-6.32-8.12-12.65-8.12s-10.54,2.71-12.49,8.12c-1.06,3.18-1.35,6.64-1.35,29.67s.29,26.51,1.35,29.67C1104.66,838.67,1108.88,841.38,1115.2,841.38Z"/><path class="cls-1" d="M1162.42,803.59c0-23.79.75-28.6,2.11-32.82,4.06-12.8,13.84-20,29.06-20s25,7.23,29.21,20c1.35,4.22,2.11,9,2.11,32.82s-.76,28.61-2.11,32.83c-4.22,12.79-14,20-29.21,20s-25-7.24-29.06-20C1163.17,832.2,1162.42,827.38,1162.42,803.59Zm31.17,37.79c6.33,0,10.69-2.71,12.65-8.12,1-3.16,1.35-6.63,1.35-29.67s-.31-26.49-1.35-29.67c-2-5.41-6.32-8.12-12.65-8.12s-10.54,2.71-12.5,8.12c-1.06,3.18-1.35,6.64-1.35,29.67s.29,26.51,1.35,29.67C1183.05,838.67,1187.27,841.38,1193.59,841.38Z"/><path class="cls-1" d="M1240.17,793.2c-1.05-3.16-1.35-5.72-1.35-15.06s.3-11.89,1.35-15c2.27-7.23,9.19-11.89,18.23-11.89s15.95,4.66,18.22,11.89c1.05,3.16,1.35,5.72,1.35,15s-.3,11.9-1.35,15.06c-2.27,7.23-9.18,11.9-18.22,11.9S1242.44,800.43,1240.17,793.2Zm24.85-3.31c.45-1.35.76-3.32.76-11.75s-.31-10.39-.76-11.74c-.9-2.86-3.46-4.37-6.62-4.37s-5.72,1.51-6.63,4.37c-.45,1.35-.75,3.32-.75,11.74s.3,10.4.75,11.75c.91,2.86,3.47,4.37,6.63,4.37S1264.12,792.75,1265,789.89Zm-9,58.42,54.82-94.86c1.35-2.25,3-3.31,5.42-3.31a5.2,5.2,0,0,1,5.41,5.41,7.18,7.18,0,0,1-1.05,3.47l-54.8,94.72a5.85,5.85,0,0,1-5.27,3.46,5.24,5.24,0,0,1-5.43-5.43A7,7,0,0,1,1256,848.31Zm42.62-19.12c0-9.34.3-11.9,1.36-15.06,2.25-7.22,9.18-11.89,18.21-11.89s16,4.67,18.22,11.89c1,3.16,1.36,5.72,1.36,15.06s-.31,11.9-1.36,15.06c-2.25,7.22-9.18,11.89-18.22,11.89s-16-4.67-18.21-11.89C1298.9,841.09,1298.6,838.53,1298.6,829.19Zm19.57,16.11c3.17,0,5.73-1.5,6.63-4.37.46-1.35.75-3.31.75-11.74s-.29-10.39-.75-11.74c-.9-2.87-3.46-4.37-6.63-4.37s-5.72,1.5-6.62,4.37c-.46,1.35-.75,3.3-.75,11.74s.29,10.39.75,11.74C1312.45,843.8,1315,845.3,1318.17,845.3Z"/><path class="cls-1" d="M1386.75,762.34c0-6.63,3.91-10.69,10.09-10.69,5.12,0,8.43,3,11.74,8.72l37.65,63.85h.45V760.37c0-5.56,3.46-8.72,8.27-8.72s8.14,3.16,8.14,8.72v84.48c0,6.62-3.92,10.69-9.94,10.69-5.27,0-8.58-3-11.9-8.73L1403.77,783h-.61v63.85c0,5.56-3.47,8.73-8.13,8.73-4.82,0-8.28-3.17-8.28-8.73Z"/><path class="cls-1" d="M1475.88,843.94l29.82-82.2c2.26-6.33,5.57-10.09,11.74-10.09s9.64,3.76,11.9,10.09l29.52,82.2a11.24,11.24,0,0,1,.59,3.32c0,5.11-4.06,8.28-8.57,8.28a8.66,8.66,0,0,1-8.44-6.17l-5.57-16h-39.15l-5.42,16a8.65,8.65,0,0,1-8.43,6.17c-4.52,0-8.59-3.17-8.59-8.28A11.23,11.23,0,0,1,1475.88,843.94Zm55.57-26.35-13.85-39.9h-.45l-13.86,39.9Z"/><path class="cls-1" d="M1561.53,768.36c-5.57,0-9-3.32-9-8s3.47-8,9-8h60.23c5.57,0,9,3.32,9,8s-3.46,8-9,8h-20.33a.79.79,0,0,0-.9.9V846.2c0,5.72-3.77,9.34-8.88,9.34s-8.89-3.62-8.89-9.34V769.26a.8.8,0,0,0-.9-.9Z"/><path class="cls-1" d="M1641.55,818.8V761c0-5.72,3.77-9.33,8.9-9.33s8.88,3.61,8.88,9.33V818.5c0,14.15,8.28,22,19.87,22s20-7.83,20-22V761c0-5.72,3.77-9.33,8.88-9.33s8.89,3.61,8.89,9.33V818.8c0,23.79-16.11,37.65-37.8,37.65C1657.67,856.45,1641.55,842.59,1641.55,818.8Z"/><path class="cls-1" d="M1791.3,850l-18.52-36.6h-19.12a.81.81,0,0,0-.91.92V846.2c0,5.72-3.61,9.34-8.88,9.34-5.12,0-8.88-3.62-8.88-9.34V760.37c0-4.82,3-8,8-8h33.13c18.82,0,32.67,12.51,32.67,30.57a29,29,0,0,1-18.22,27.56l16.72,31.17a11.56,11.56,0,0,1,1.35,5.41,8.19,8.19,0,0,1-8.59,8.44C1796.28,855.54,1793.26,853.88,1791.3,850Zm-.15-67c0-8.88-6.32-14.6-15.66-14.6h-21.83a.8.8,0,0,0-.91.9v27.26a.81.81,0,0,0,.91.9h21.83C1784.83,797.42,1791.15,791.7,1791.15,783Z"/><path class="cls-1" d="M1819.83,843.94l29.82-82.2c2.26-6.33,5.57-10.09,11.74-10.09s9.64,3.76,11.9,10.09l29.51,82.2a10.92,10.92,0,0,1,.6,3.32c0,5.11-4.06,8.28-8.57,8.28a8.66,8.66,0,0,1-8.44-6.17l-5.57-16h-39.15l-5.42,16a8.66,8.66,0,0,1-8.43,6.17c-4.52,0-8.59-3.17-8.59-8.28A11.23,11.23,0,0,1,1819.83,843.94Zm55.57-26.35-13.85-39.9h-.45l-13.86,39.9Z"/><path class="cls-1" d="M1915.59,761c0-5.72,3.76-9.33,8.88-9.33s8.88,3.61,8.88,9.33v76.95a.8.8,0,0,0,.9.9h40.37c5.56,0,9,3.31,9,8s-3.47,8-9,8h-50.15c-5.42,0-8.88-3.47-8.88-8.88Z"/><circle class="cls-2" cx="1500.63" cy="334.36" r="334.36"/><path class="cls-3" d="M1500.63,16.12c175.47,0,318.23,142.76,318.23,318.24S1676.1,652.59,1500.63,652.59s-318.24-142.76-318.24-318.23S1325.15,16.12,1500.63,16.12m0-16.12C1316,0,1166.27,149.7,1166.27,334.36S1316,668.72,1500.63,668.72,1835,519,1835,334.36,1685.29,0,1500.63,0Z"/><circle class="cls-4" cx="1500.63" cy="334.36" r="289.47"/><path class="cls-5" d="M1506.78,377.34c-14.25,23.67-22.37,46.79-27.72,68a236.74,236.74,0,0,0-16.72-34.78c28.84-83.48-62.26-159.94-201.22-120.63,51.86,39.22,52.57,83.43,96.2,120.19,16.48,13.89,44.74,21.52,68.1,20.77-5.57-22.15-29.08-61.56-64.91-93.59,1.92.53,3.83,1.3,5.74,2,43.07,26.1,90.44,75.52,104.91,148.14,0,0,0,.08,0,.13a9.08,9.08,0,0,0,.39,1,9.65,9.65,0,0,0,1,2.29,10.66,10.66,0,0,0,.76.88,10,10,0,0,0,1.69,1.63,9.56,9.56,0,0,0,1.09.61,8.77,8.77,0,0,0,2.18.86c.22.06.39.21.62.25a9.43,9.43,0,0,0,1.67.15h.07a9.74,9.74,0,0,0,1.85-.18c.22,0,.38-.19.6-.25a9.35,9.35,0,0,0,2.11-.89,9,9,0,0,0,1.13-.65,9.37,9.37,0,0,0,1.63-1.64,9.61,9.61,0,0,0,.78-.91,10.32,10.32,0,0,0,.93-2.21c.12-.39.33-.73.41-1.12,0-.05,0-.08,0-.12,10.23-57.11,24.23-135.31,148.3-201.11.2-.11.32-.3.51-.42.5-.15,1-.36,1.46-.51C1587.36,322.93,1557.3,365,1544,396.72,1680.9,408.84,1672,245.17,1743.06,249.1,1599.12,198.6,1482.8,264.56,1506.78,377.34Z"/><path class="cls-1" d="M2373.32,762.34c0-6.63,3.92-10.69,10.09-10.69,5.11,0,8.43,3,11.75,8.72l37.64,63.85h.45V760.37c0-5.56,3.45-8.72,8.28-8.72,4.66,0,8.13,3.16,8.13,8.72v84.48c0,6.62-3.92,10.69-9.94,10.69-5.27,0-8.58-3-11.9-8.73L2390.34,783h-.61v63.85c0,5.56-3.47,8.73-8.13,8.73s-8.28-3.17-8.28-8.73Z"/><path class="cls-1" d="M2468.34,775.28c5.27-16.1,18.22-24.54,35.84-24.54s30.72,8.44,36,24.54c2.4,7.38,3,13.4,3,28.31s-.61,20.93-3,28.31c-5.27,16.12-18.23,24.55-36,24.55s-30.57-8.43-35.84-24.55c-2.41-7.38-3-13.4-3-28.31S2465.93,782.66,2468.34,775.28Zm54.66,4.83c-2.71-8.28-8.73-13.41-18.82-13.41-9.94,0-16,5.13-18.67,13.41-1.5,4.35-2.11,9.78-2.11,23.48s.61,19.13,2.11,23.49c2.71,8.29,8.73,13.4,18.67,13.4,10.09,0,16.11-5.11,18.82-13.4,1.51-4.36,2.1-9.79,2.1-23.49S2524.51,784.46,2523,780.11Z"/><path class="cls-1" d="M2558.85,762.34c0-6.63,3.92-10.69,10.09-10.69,5.11,0,8.43,3,11.75,8.72l37.64,63.85h.45V760.37c0-5.56,3.46-8.72,8.29-8.72,4.66,0,8.12,3.16,8.12,8.72v84.48c0,6.62-3.92,10.69-9.94,10.69-5.27,0-8.58-3-11.89-8.73L2575.87,783h-.61v63.85c0,5.56-3.46,8.73-8.12,8.73-4.82,0-8.29-3.17-8.29-8.73Z"/><path class="cls-1" d="M2683.15,803.59c0-14.91.6-20.93,2.86-28.31,5.27-16.1,18.37-24.54,36.29-24.54,16,0,27.55,6.78,32.68,16.41a10.77,10.77,0,0,1,1.5,5.27,7.87,7.87,0,0,1-8.13,8c-3,0-5.42-1.21-7.83-4.51-4.22-6.33-10.09-9.19-18.22-9.19-10.38,0-16.41,5.13-19.12,13.55-1.35,4.37-2,9.64-2,23.34s.61,19,2,23.34c2.71,8.44,8.88,13.55,19.28,13.55,9.47,0,16.55-4.66,19.27-12.94a44.83,44.83,0,0,0,1.65-13.11.8.8,0,0,0-.91-.9h-11.73c-4.82,0-7.83-3.16-7.83-7.52s3-7.54,7.83-7.54h23c4.51,0,7.23,2.72,7.23,7.23v2.86c0,8.28-.75,16.87-2.72,22.73-5.27,16.27-18.21,25.16-36,25.16-17.92,0-31-8.43-36.29-24.55C2683.75,824.52,2683.15,818.5,2683.15,803.59Z"/><path class="cls-1" d="M2775.71,762.34c0-6.63,3.91-10.69,9.93-10.69,5.27,0,7.68,2.85,10.55,9.18l25.29,56.76h.61l24.69-56.76c2.71-6.33,5.12-9.18,10.39-9.18,6,0,9.78,4.06,9.78,10.69v84.47c0,5.56-3.46,8.73-8.12,8.73-4.82,0-8.28-3.17-8.28-8.73V790.65h-.76l-18.68,42.45c-2.7,6.18-5.41,8-9.63,8-4.37,0-7.08-1.81-9.79-8l-18.82-42.45h-.75v56.16c0,5.56-3.47,8.73-8.13,8.73-4.82,0-8.28-3.17-8.28-8.73Z"/><path class="cls-1" d="M2885.63,775.28c5.27-16.1,18.21-24.54,35.84-24.54s30.71,8.44,36,24.54c2.41,7.38,3,13.4,3,28.31s-.6,20.93-3,28.31c-5.27,16.12-18.22,24.55-36,24.55s-30.57-8.43-35.84-24.55c-2.42-7.38-3-13.4-3-28.31S2883.21,782.66,2885.63,775.28Zm54.66,4.83c-2.72-8.28-8.74-13.41-18.82-13.41s-16,5.13-18.68,13.41c-1.5,4.35-2.11,9.78-2.11,23.48s.61,19.13,2.11,23.49c2.71,8.29,8.74,13.4,18.68,13.4s16.1-5.11,18.82-13.4c1.5-4.36,2.1-9.79,2.1-23.49S2941.79,784.46,2940.29,780.11Z"/><circle class="cls-6" cx="2666.89" cy="334.36" r="334.36"/><path class="cls-7" d="M2666.89,16.12c175.48,0,318.24,142.76,318.24,318.24s-142.76,318.23-318.24,318.23-318.23-142.76-318.23-318.23S2491.42,16.12,2666.89,16.12m0-16.12c-184.66,0-334.36,149.7-334.36,334.36s149.7,334.36,334.36,334.36S3001.25,519,3001.25,334.36,2851.55,0,2666.89,0Z"/><circle class="cls-8" cx="2666.89" cy="334.36" r="289.47"/><path class="cls-5" d="M2653.09,427.36l.32.87c-38.28-77.09-103.89-110.45-149.55-126.75,54,57.63,86.89,97.07,107.16,182.47h98.44c18.77-107.82,45.63-190,151.84-287C2723.87,249.55,2668.37,361.33,2653.09,427.36Z"/><circle class="cls-9" cx="334.36" cy="334.36" r="334.36"/><path class="cls-10" d="M334.36,16.12c175.48,0,318.23,142.76,318.23,318.24S509.84,652.59,334.36,652.59,16.12,509.83,16.12,334.36,158.88,16.12,334.36,16.12m0-16.12C149.7,0,0,149.7,0,334.36S149.7,668.72,334.36,668.72,668.72,519,668.72,334.36,519,0,334.36,0Z"/><circle class="cls-11" cx="334.36" cy="334.36" r="289.47"/><rect class="cls-5" x="323.61" y="454.19" width="21.5" height="75.21"/><path class="cls-5" d="M418.09,389.55c45.79-46,57.83-107.32,78.09-140.21-25.66,25.45-81.46,49.19-119.19,99.12Z"/><path class="cls-5" d="M423.4,394.87l27.93,27.92c31.18-18.56,61.86-43.34,80.52-54.3C502.8,377.8,468,379.17,423.4,394.87Z"/><path class="cls-5" d="M367.43,338.9c7-62.66-19.31-117-33.07-210.75-9.05,61.6-23.52,106.15-30.43,147.25Z"/><path class="cls-5" d="M225.62,288.29c-21.11-14.67-40.65-26.62-53.08-39,22.19,36,34.39,106.32,92.11,153-54.13-23-94.66-23.25-127.78-33.86,31.19,18.33,96,75.4,140.58,77.17-33.2,0-55,14.17-83.42,25.23,30.51,2.34,92.63,16.48,140.33-16.69,24.55,17.07,52.9,21.58,78.82,21.64Z"/><path class="cls-5" d="M466.39,491.51a8,8,0,0,1-5.7-2.36L194.41,222.88a8.06,8.06,0,0,1,11.4-11.4L472.09,477.75a8.06,8.06,0,0,1-5.7,13.76Z"/></g></g></svg>