<svg xmlns="http://www.w3.org/2000/svg" xmlns:xlink="http://www.w3.org/1999/xlink" viewBox="0 0 3325 1017.69"><defs><style>.cls-1{fill:#1d1d1b;}.cls-2{fill:url(#linear-gradient);}.cls-3{fill:url(#linear-gradient-2);}.cls-4{fill:url(#radial-gradient);}.cls-5{fill:#fff;}.cls-6{fill:url(#linear-gradient-3);}.cls-7{fill:url(#linear-gradient-4);}.cls-8{fill:url(#radial-gradient-2);}.cls-9{fill:url(#linear-gradient-5);}.cls-10{fill:url(#linear-gradient-6);}.cls-11{fill:url(#radial-gradient-3);}</style><linearGradient id="linear-gradient" x1="174.41" y1="97.93" x2="647.27" y2="570.79" gradientUnits="userSpaceOnUse"><stop offset="0" stop-color="#f5f5f5"/><stop offset="0.06" stop-color="#ebebeb"/><stop offset="0.17" stop-color="#d0cfcf"/><stop offset="0.31" stop-color="#a4a3a3"/><stop offset="0.42" stop-color="#7c7b7b"/><stop offset="0.44" stop-color="#898888"/><stop offset="0.48" stop-color="#abaaaa"/><stop offset="0.53" stop-color="#e1e1e1"/><stop offset="0.54" stop-color="#f5f5f5"/><stop offset="0.59" stop-color="#efefef"/><stop offset="0.66" stop-color="#ddd"/><stop offset="0.75" stop-color="#c0bfbf"/><stop offset="0.84" stop-color="#979696"/><stop offset="0.89" stop-color="#7c7b7b"/><stop offset="0.99" stop-color="#c6c6c5"/></linearGradient><linearGradient id="linear-gradient-2" x1="174.41" y1="570.79" x2="647.27" y2="97.93" xlink:href="#linear-gradient"/><radialGradient id="radial-gradient" cx="410.84" cy="334.36" r="289.47" gradientUnits="userSpaceOnUse"><stop offset="0.56" stop-color="#008137"/><stop offset="0.63" stop-color="#017934"/><stop offset="0.74" stop-color="#02642a"/><stop offset="0.88" stop-color="#04411c"/><stop offset="1" stop-color="#071d0c"/></radialGradient><linearGradient id="linear-gradient-3" x1="1340.68" y1="97.93" x2="1813.53" y2="570.79" xlink:href="#linear-gradient"/><linearGradient id="linear-gradient-4" x1="1340.68" y1="570.79" x2="1813.53" y2="97.93" xlink:href="#linear-gradient"/><radialGradient id="radial-gradient-2" cx="1577.11" cy="334.36" r="289.47" xlink:href="#radial-gradient"/><linearGradient id="linear-gradient-5" x1="2506.95" y1="97.93" x2="2979.8" y2="570.79" xlink:href="#linear-gradient"/><linearGradient id="linear-gradient-6" x1="2506.95" y1="570.79" x2="2979.8" y2="97.93" xlink:href="#linear-gradient"/><radialGradient id="radial-gradient-3" cx="2743.37" cy="334.36" r="289.47" xlink:href="#radial-gradient"/></defs><title>Asset 2</title><g id="Layer_2" data-name="Layer 2"><g id="Layer_1-2" data-name="Layer 1"><path class="cls-1" d="M1101.93,762.34c0-6.62,3.92-10.68,10.09-10.68,5.11,0,8.43,3,11.75,8.72l37.64,63.85h.45V760.38c0-5.56,3.46-8.72,8.29-8.72,4.66,0,8.12,3.16,8.12,8.72v84.47c0,6.63-3.91,10.7-9.94,10.7-5.27,0-8.58-3-11.89-8.73L1119,783h-.61v63.85c0,5.56-3.46,8.73-8.12,8.73-4.82,0-8.29-3.17-8.29-8.73Z"/><path class="cls-1" d="M1197,775.29c5.27-16.11,18.21-24.55,35.83-24.55,17.77,0,30.72,8.44,36,24.55,2.4,7.38,3,13.4,3,28.31s-.61,20.93-3,28.31c-5.27,16.11-18.22,24.54-36,24.54-17.62,0-30.56-8.43-35.83-24.54-2.42-7.38-3-13.41-3-28.31S1194.54,782.67,1197,775.29Zm54.66,4.83c-2.72-8.29-8.74-13.41-18.83-13.41-9.94,0-16,5.12-18.67,13.41-1.5,4.35-2.11,9.78-2.11,23.48s.61,19.12,2.11,23.49c2.71,8.28,8.73,13.4,18.67,13.4,10.09,0,16.11-5.12,18.83-13.4,1.5-4.37,2.1-9.79,2.1-23.49S1253.12,784.47,1251.62,780.12Z"/><path class="cls-1" d="M1319.76,846.21V760.38c0-4.82,3-8,7.83-8h32.07c19.87,0,33.72,12.8,33.72,31.78s-13.85,31.92-33.72,31.92h-21.24a.79.79,0,0,0-.9.9v29.21c0,5.72-3.76,9.34-8.88,9.34S1319.76,851.93,1319.76,846.21Zm55.85-62c0-9.34-6.46-15.81-17-15.81h-20.18a.79.79,0,0,0-.9.9v29.81a.8.8,0,0,0,.9.91h20.18C1369.15,800,1375.61,793.66,1375.61,784.18Z"/><path class="cls-1" d="M1405.89,760.38c0-4.82,3-8,8-8h51c5.57,0,9,3.32,9,8s-3.46,8-9,8h-40.36a.79.79,0,0,0-.9.9v25a.8.8,0,0,0,.9.9h32.83c5.57,0,9,3.31,9,8s-3.47,8-9,8h-32.83a.8.8,0,0,0-.9.9v25.91a.8.8,0,0,0,.9.9h40.36c5.57,0,9,3.31,9,8s-3.46,8-9,8h-51c-5,0-8-3.16-8-8Z"/><path class="cls-1" d="M1489.14,847.27a9,9,0,0,1-4.52-7.69,8.06,8.06,0,0,1,8-8.12,11.47,11.47,0,0,1,5.72,1.65c7.83,4.67,15.05,7.38,23.64,7.38,12.65,0,19.87-5.87,19.87-14.75,0-7.38-4.22-12.36-18.52-14.16l-5.27-.75c-20.63-2.72-31-12.35-31-29.36,0-18.53,13.55-30.73,34.49-30.73,11.13,0,21.83,3,27.85,6.93,3.16,1.81,4.52,4.37,4.52,7.23a7.61,7.61,0,0,1-7.83,7.84,14.44,14.44,0,0,1-5.57-1.36,42.73,42.73,0,0,0-19.13-4.67c-10.83,0-16.26,5.87-16.26,13.7,0,7.38,5.12,11.89,18.67,13.86l5.13.75c20.92,2.86,31,12.49,31,30,0,18.23-13.11,31.47-38.84,31.47A59.2,59.2,0,0,1,1489.14,847.27Z"/><path class="cls-1" d="M1574.44,768.37c-5.57,0-9-3.32-9-8s3.46-8,9-8h60.23c5.57,0,9,3.32,9,8s-3.47,8-9,8h-20.32a.8.8,0,0,0-.91.9v76.94c0,5.72-3.77,9.34-8.88,9.34s-8.89-3.62-8.89-9.34V769.27a.79.79,0,0,0-.9-.9Z"/><path class="cls-1" d="M1654.78,761c0-5.72,3.76-9.33,8.88-9.33s8.88,3.61,8.88,9.33v85.22c0,5.72-3.75,9.34-8.88,9.34s-8.88-3.62-8.88-9.34Z"/><path class="cls-1" d="M1688,803.6c0-15.21.75-21.08,2.85-28.16,5.27-16.11,17.92-24.7,35.55-24.7,14.29,0,25.74,6.64,30.86,16.73a10.65,10.65,0,0,1,1.5,5.27,7.87,7.87,0,0,1-8.13,8c-3,0-5.41-1.35-7.83-4.81-4.06-6.18-8.88-9.19-16.4-9.19-9.8,0-15.67,5.12-18.37,13.41-1.36,4.35-2,8.88-2,23.48s.61,19.12,2,23.49c2.7,8.28,8.57,13.4,18.37,13.4,7.52,0,12.34-3,16.4-9.19,2.42-3.46,4.82-4.82,7.83-4.82a7.92,7.92,0,0,1,8.13,8.14,10.67,10.67,0,0,1-1.5,5.12c-5.12,10.09-16.57,16.71-30.86,16.71-17.63,0-30.28-8.58-35.55-24.7C1688.77,824.68,1688,818.81,1688,803.6Z"/><path class="cls-1" d="M1771.88,761c0-5.72,3.76-9.33,8.88-9.33s8.88,3.61,8.88,9.33v85.22c0,5.72-3.76,9.34-8.88,9.34s-8.88-3.62-8.88-9.34Z"/><path class="cls-1" d="M1808.11,760.38c0-4.82,3-8,8-8h25.14c20.78,0,33.43,7.38,38.7,23.5,2,6.32,3,13.1,3,27.7s-1.06,21.38-3,27.7c-5.27,16.11-17.92,23.49-38.7,23.49h-25.14c-5,0-8-3-8-7.83Zm18.66,78.46h13.55c11.91,0,19.44-4.07,22.59-13.71,1.21-4.21,2-10.24,2-21.53s-.75-17.31-2-21.53c-3.15-9.64-10.68-13.7-22.59-13.7h-13.55a.79.79,0,0,0-.9.9v68.67A.8.8,0,0,0,1826.77,838.84Z"/><path class="cls-1" d="M1898.25,760.38c0-4.82,3-8,8-8h51c5.56,0,9,3.32,9,8s-3.46,8-9,8h-40.37a.8.8,0,0,0-.9.9v25a.8.8,0,0,0,.9.9h32.83c5.57,0,9,3.31,9,8s-3.47,8-9,8h-32.83a.8.8,0,0,0-.9.9v25.91a.8.8,0,0,0,.9.9h40.37c5.56,0,9,3.31,9,8s-3.46,8-9,8h-51c-5,0-8-3.16-8-8Z"/><path class="cls-1" d="M1981.51,847.27a9,9,0,0,1-4.52-7.69,8.06,8.06,0,0,1,8-8.12,11.47,11.47,0,0,1,5.72,1.65c7.83,4.67,15,7.38,23.64,7.38,12.65,0,19.87-5.87,19.87-14.75,0-7.38-4.22-12.36-18.52-14.16l-5.27-.75c-20.62-2.72-31-12.35-31-29.36,0-18.53,13.56-30.73,34.49-30.73,11.14,0,21.83,3,27.85,6.93,3.16,1.81,4.52,4.37,4.52,7.23a7.6,7.6,0,0,1-7.83,7.84,14.53,14.53,0,0,1-5.57-1.36,42.69,42.69,0,0,0-19.13-4.67c-10.83,0-16.26,5.87-16.26,13.7,0,7.38,5.12,11.89,18.68,13.86l5.12.75c20.92,2.86,31,12.49,31,30,0,18.23-13.1,31.47-38.84,31.47A59.2,59.2,0,0,1,1981.51,847.27Z"/><path class="cls-1" d="M2380,762.34c0-6.62,3.91-10.68,9.93-10.68,5.28,0,7.68,2.85,10.55,9.18l25.29,56.76h.61l24.69-56.76c2.7-6.33,5.12-9.18,10.39-9.18,6,0,9.78,4.06,9.78,10.68v84.48c0,5.56-3.46,8.73-8.12,8.73-4.82,0-8.29-3.17-8.29-8.73V790.66h-.75l-18.68,42.45c-2.7,6.18-5.41,8-9.63,8-4.37,0-7.08-1.81-9.79-8l-18.82-42.45h-.75v56.16c0,5.56-3.47,8.73-8.13,8.73-4.82,0-8.28-3.17-8.28-8.73Z"/><path class="cls-1" d="M2484,844l29.81-82.2c2.27-6.33,5.57-10.09,11.75-10.09s9.63,3.76,11.89,10.09L2567,844a11.17,11.17,0,0,1,.6,3.32c0,5.11-4.06,8.28-8.58,8.28a8.69,8.69,0,0,1-8.44-6.17l-5.56-16h-39.16l-5.41,16a8.68,8.68,0,0,1-8.43,6.17c-4.53,0-8.59-3.17-8.59-8.28A10.86,10.86,0,0,1,2484,844Zm55.56-26.35-13.85-39.9h-.45l-13.85,39.9Z"/><path class="cls-1" d="M2579.79,760.38c0-4.82,3-8,8-8h25.15c20.78,0,33.43,7.38,38.7,23.5,1.95,6.32,3,13.1,3,27.7s-1.06,21.38-3,27.7c-5.27,16.11-17.92,23.49-38.7,23.49h-25.15c-5,0-8-3-8-7.83Zm18.66,78.46H2612c11.91,0,19.43-4.07,22.59-13.71,1.21-4.21,2-10.24,2-21.53s-.75-17.31-2-21.53c-3.16-9.64-10.68-13.7-22.59-13.7h-13.55a.79.79,0,0,0-.9.9v68.67A.8.8,0,0,0,2598.45,838.84Z"/><path class="cls-1" d="M2669.93,760.38c0-4.82,3-8,8-8h51c5.57,0,9,3.32,9,8s-3.46,8-9,8h-40.36a.79.79,0,0,0-.9.9v25a.8.8,0,0,0,.9.9h32.83c5.57,0,9,3.31,9,8s-3.47,8-9,8h-32.83a.8.8,0,0,0-.9.9v25.91a.8.8,0,0,0,.9.9H2729c5.57,0,9,3.31,9,8s-3.46,8-9,8h-51c-5,0-8-3.16-8-8Z"/><path class="cls-1" d="M2871.93,846.21c-1.81,6.78-4.66,9.34-9.48,9.34s-7.68-2.71-9.49-9.34l-17.61-62.93H2835l-17.61,62.93c-1.81,6.63-4.67,9.34-9.49,9.34s-7.53-2.56-9.49-9.34l-22.28-82.66a15.72,15.72,0,0,1-.45-3.46c0-4.82,3.16-8.43,8.58-8.43,4.36,0,7.23,2.25,8.73,8L2808.69,823h.31l17.45-63.38c1.52-5.43,4.22-8,8.74-8s7.23,2.55,8.73,8L2861.84,823h.31l15.35-63.38c1.36-5.73,4.37-8,8.59-8,5.42,0,8.58,3.61,8.58,8.43a15.72,15.72,0,0,1-.45,3.46Z"/><path class="cls-1" d="M2906.16,761c0-5.72,3.76-9.33,8.88-9.33s8.88,3.61,8.88,9.33v85.22c0,5.72-3.75,9.34-8.88,9.34s-8.88-3.62-8.88-9.34Z"/><path class="cls-1" d="M2943.9,768.37c-5.57,0-9-3.32-9-8s3.47-8,9-8h60.22c5.58,0,9,3.32,9,8s-3.46,8-9,8H2983.8a.79.79,0,0,0-.9.9v76.94c0,5.72-3.77,9.34-8.88,9.34s-8.89-3.62-8.89-9.34V769.27a.79.79,0,0,0-.91-.9Z"/><path class="cls-1" d="M3024.24,761c0-5.72,3.76-9.33,8.88-9.33s8.88,3.61,8.88,9.33v33.28a.8.8,0,0,0,.9.9h39a.8.8,0,0,0,.91-.9V761c0-5.72,3.76-9.33,8.88-9.33s8.88,3.61,8.88,9.33v85.22c0,5.72-3.76,9.34-8.88,9.34s-8.88-3.62-8.88-9.34V812a.8.8,0,0,0-.91-.9h-39a.8.8,0,0,0-.9.9v34.18c0,5.72-3.76,9.34-8.88,9.34s-8.88-3.62-8.88-9.34Z"/><path class="cls-1" d="M2161.75,922.23c0-5.72,3.75-9.33,8.88-9.33s8.88,3.61,8.88,9.33v85.22c0,5.72-3.76,9.34-8.88,9.34s-8.88-3.62-8.88-9.34Z"/><path class="cls-1" d="M2198,923.58c0-6.62,3.92-10.68,10.09-10.68,5.12,0,8.43,3,11.75,8.72l37.64,63.85h.45V921.62c0-5.56,3.47-8.72,8.27-8.72s8.14,3.16,8.14,8.72v84.47c0,6.63-3.92,10.7-9.94,10.7-5.27,0-8.58-3-11.9-8.73L2215,944.21h-.61v63.85c0,5.56-3.47,8.73-8.13,8.73-4.81,0-8.28-3.17-8.28-8.73Z"/><path class="cls-1" d="M2292.93,921.62c0-4.82,3-8,8-8h25.14c20.79,0,33.44,7.38,38.71,23.5,1.95,6.32,3,13.1,3,27.7s-1.06,21.38-3,27.7c-5.27,16.12-17.92,23.5-38.71,23.5h-25.14c-5,0-8-3-8-7.84Zm18.67,78.46h13.55c11.9,0,19.43-4.07,22.59-13.71,1.21-4.21,2-10.24,2-21.53s-.74-17.31-2-21.53c-3.16-9.64-10.69-13.7-22.59-13.7H2311.6a.8.8,0,0,0-.91.9v68.67A.81.81,0,0,0,2311.6,1000.08Z"/><path class="cls-1" d="M2382.29,980.05V922.23c0-5.72,3.77-9.33,8.89-9.33s8.88,3.61,8.88,9.33v57.52c0,14.15,8.28,22,19.87,22,11.75,0,20-7.83,20-22V922.23c0-5.72,3.77-9.33,8.88-9.33s8.89,3.61,8.89,9.33v57.82c0,23.79-16.11,37.64-37.8,37.64C2398.4,1017.69,2382.29,1003.84,2382.29,980.05Z"/><path class="cls-1" d="M2474.36,1008.51a9,9,0,0,1-4.52-7.69,8.06,8.06,0,0,1,8-8.12,11.48,11.48,0,0,1,5.73,1.65c7.83,4.67,15,7.38,23.64,7.38,12.64,0,19.87-5.87,19.87-14.75,0-7.38-4.22-12.36-18.52-14.16l-5.27-.75c-20.63-2.72-31-12.35-31-29.36,0-18.53,13.55-30.73,34.48-30.73,11.14,0,21.84,3,27.85,6.93,3.16,1.81,4.53,4.37,4.53,7.24a7.6,7.6,0,0,1-7.83,7.83,14.53,14.53,0,0,1-5.58-1.36,42.68,42.68,0,0,0-19.12-4.67c-10.84,0-16.26,5.87-16.26,13.7,0,7.38,5.12,11.89,18.67,13.86l5.12.75c20.92,2.86,31,12.49,31,30,0,18.23-13.1,31.47-38.84,31.47A59.19,59.19,0,0,1,2474.36,1008.51Z"/><path class="cls-1" d="M2559.66,929.61c-5.57,0-9-3.32-9-8s3.47-8,9-8h60.23c5.57,0,9,3.32,9,8s-3.46,8-9,8h-20.33a.79.79,0,0,0-.9.9v76.94c0,5.72-3.77,9.34-8.88,9.34s-8.89-3.62-8.89-9.34V930.51a.79.79,0,0,0-.9-.9Z"/><path class="cls-1" d="M2696.3,1011.22l-18.52-36.6h-19.13a.81.81,0,0,0-.9.92v31.91c0,5.72-3.61,9.34-8.88,9.34-5.12,0-8.88-3.62-8.88-9.34V921.62c0-4.82,3-8,8-8h33.13c18.82,0,32.66,12.51,32.66,30.57a29,29,0,0,1-18.21,27.56l16.71,31.16a11.52,11.52,0,0,1,1.36,5.42,8.19,8.19,0,0,1-8.59,8.44C2701.27,1016.79,2698.26,1015.13,2696.3,1011.22Zm-.15-67c0-8.88-6.32-14.6-15.66-14.6h-21.84a.79.79,0,0,0-.9.9v27.25a.8.8,0,0,0,.9.91h21.84C2689.83,958.67,2696.15,953,2696.15,944.21Z"/><path class="cls-1" d="M2728.68,922.23c0-5.72,3.76-9.33,8.88-9.33s8.88,3.61,8.88,9.33v85.22c0,5.72-3.75,9.34-8.88,9.34s-8.88-3.62-8.88-9.34Z"/><path class="cls-1" d="M2759,1005.19l29.81-82.2c2.27-6.33,5.58-10.09,11.75-10.09s9.64,3.76,11.89,10.09l29.52,82.2a10.86,10.86,0,0,1,.6,3.32c0,5.11-4.06,8.28-8.58,8.28a8.69,8.69,0,0,1-8.44-6.17l-5.56-16h-39.16l-5.41,16a8.68,8.68,0,0,1-8.43,6.17c-4.53,0-8.59-3.17-8.59-8.28A11.17,11.17,0,0,1,2759,1005.19Zm55.56-26.35-13.84-39.9h-.45l-13.86,39.9Z"/><path class="cls-1" d="M2854.8,922.23c0-5.72,3.76-9.33,8.88-9.33s8.88,3.61,8.88,9.33v76.95a.8.8,0,0,0,.9.9h40.37c5.56,0,9,3.31,9,8s-3.46,8-9,8h-50.15c-5.42,0-8.88-3.47-8.88-8.89Z"/><path class="cls-1" d="M2965.26,922.23c0-5.72,3.76-9.33,8.88-9.33s8.88,3.61,8.88,9.33v33.28a.8.8,0,0,0,.91.9h39a.8.8,0,0,0,.91-.9V922.23c0-5.72,3.76-9.33,8.88-9.33s8.88,3.61,8.88,9.33v85.22c0,5.72-3.77,9.34-8.88,9.34s-8.88-3.62-8.88-9.34V973.27a.8.8,0,0,0-.91-.9h-39a.8.8,0,0,0-.91.9v34.18c0,5.72-3.75,9.34-8.88,9.34s-8.88-3.62-8.88-9.34Z"/><path class="cls-1" d="M3060.25,921.62c0-4.82,3-8,8-8h51.05c5.56,0,9,3.32,9,8s-3.47,8-9,8h-40.36a.79.79,0,0,0-.9.9v25a.8.8,0,0,0,.9.9h32.82c5.58,0,9,3.31,9,8s-3.46,8-9,8h-32.82a.8.8,0,0,0-.9.9v25.91a.8.8,0,0,0,.9.9h40.36c5.56,0,9,3.31,9,8s-3.47,8-9,8h-51.05c-5,0-8-3.16-8-8Z"/><path class="cls-1" d="M3141.48,923.58c0-6.62,3.92-10.68,9.93-10.68,5.28,0,7.69,2.85,10.55,9.18l25.29,56.76h.61l24.69-56.76c2.71-6.33,5.12-9.18,10.39-9.18,6,0,9.79,4.06,9.79,10.68v84.48c0,5.56-3.47,8.73-8.13,8.73-4.82,0-8.28-3.17-8.28-8.73V951.9h-.76l-18.67,42.45c-2.71,6.18-5.42,8-9.64,8s-7.07-1.81-9.78-8l-18.82-42.45h-.76v56.16c0,5.56-3.46,8.73-8.12,8.73-4.82,0-8.29-3.17-8.29-8.73Z"/><path class="cls-1" d="M3251.37,1007.45V921.62c0-4.82,3-8,7.83-8h32.07c19.87,0,33.73,12.8,33.73,31.78s-13.86,31.92-33.73,31.92H3270a.8.8,0,0,0-.91.9v29.21c0,5.72-3.76,9.34-8.88,9.34S3251.37,1013.17,3251.37,1007.45Zm55.86-62c0-9.34-6.47-15.81-17-15.81H3270a.8.8,0,0,0-.91.9v29.82a.81.81,0,0,0,.91.9h20.17C3300.76,961.23,3307.23,954.9,3307.23,945.42Z"/><path class="cls-1" d="M0,762.34c0-6.62,3.93-10.68,9.93-10.68,5.29,0,7.68,2.85,10.56,9.18L45.77,817.6h.61l24.69-56.76c2.71-6.33,5.12-9.18,10.39-9.18,6,0,9.78,4.06,9.78,10.68v84.48c0,5.56-3.46,8.73-8.12,8.73-4.81,0-8.27-3.17-8.27-8.73V790.66h-.76L55.41,833.11c-2.71,6.18-5.42,8-9.64,8-4.37,0-7.08-1.81-9.78-8L17.17,790.66h-.75v56.16c0,5.56-3.47,8.73-8.13,8.73-4.83,0-8.29-3.17-8.29-8.73Z"/><path class="cls-1" d="M104,844l29.81-82.2c2.27-6.33,5.59-10.09,11.76-10.09s9.64,3.76,11.88,10.09L187,844a10.85,10.85,0,0,1,.61,3.32c0,5.11-4.07,8.28-8.59,8.28a8.71,8.71,0,0,1-8.44-6.17l-5.56-16H125.86l-5.41,16a8.66,8.66,0,0,1-8.42,6.17c-4.54,0-8.59-3.17-8.59-8.28A11.18,11.18,0,0,1,104,844ZM159.6,817.6l-13.85-39.9h-.44l-13.86,39.9Z"/><path class="cls-1" d="M199.79,760.38c0-4.82,3-8,8-8h25.15c20.78,0,33.42,7.38,38.69,23.5,1.95,6.32,3,13.1,3,27.7s-1.07,21.38-3,27.7c-5.27,16.11-17.91,23.49-38.69,23.49H207.77c-5,0-8-3-8-7.83Zm18.66,78.46H232c11.91,0,19.42-4.07,22.6-13.71,1.19-4.21,1.95-10.24,1.95-21.53s-.76-17.31-1.95-21.53c-3.18-9.64-10.69-13.7-22.6-13.7H218.45a.8.8,0,0,0-.9.9v68.67A.8.8,0,0,0,218.45,838.84Z"/><path class="cls-1" d="M289.94,760.38c0-4.82,3-8,8-8h51c5.56,0,9,3.32,9,8s-3.46,8-9,8H308.6a.79.79,0,0,0-.9.9v25a.8.8,0,0,0,.9.9h32.82c5.58,0,9.05,3.31,9.05,8s-3.47,8-9.05,8H308.6a.8.8,0,0,0-.9.9v25.91a.8.8,0,0,0,.9.9H349c5.56,0,9,3.31,9,8s-3.46,8-9,8h-51c-5,0-8-3.16-8-8Z"/><path class="cls-1" d="M404.15,761c0-5.72,3.76-9.33,8.88-9.33s8.88,3.61,8.88,9.33v85.22c0,5.72-3.75,9.34-8.88,9.34s-8.88-3.62-8.88-9.34Z"/><path class="cls-1" d="M440.37,762.34c0-6.62,3.9-10.68,10.08-10.68,5.12,0,8.44,3,11.75,8.72l37.65,63.85h.44V760.38c0-5.56,3.46-8.72,8.29-8.72,4.66,0,8.13,3.16,8.13,8.72v84.47c0,6.63-3.93,10.7-10,10.7-5.27,0-8.56-3-11.88-8.73L457.37,783h-.6v63.85c0,5.56-3.47,8.73-8.13,8.73s-8.27-3.17-8.27-8.73Z"/><path class="cls-1" d="M567.07,818.81V761c0-5.72,3.76-9.33,8.88-9.33s8.88,3.61,8.88,9.33V818.5c0,14.16,8.3,22,19.89,22s20-7.83,20-22V761c0-5.72,3.75-9.33,8.88-9.33s8.88,3.61,8.88,9.33v57.82c0,23.79-16.11,37.64-37.79,37.64S567.07,842.6,567.07,818.81Z"/><path class="cls-1" d="M659.14,847.27a9,9,0,0,1-4.52-7.69,8.06,8.06,0,0,1,8-8.12,11.48,11.48,0,0,1,5.73,1.65c7.83,4.67,15,7.38,23.64,7.38,12.64,0,19.86-5.87,19.86-14.75,0-7.38-4.22-12.36-18.52-14.16l-5.26-.75c-20.62-2.72-31-12.35-31-29.36,0-18.53,13.54-30.73,34.47-30.73,11.15,0,21.83,3,27.86,6.93,3.17,1.81,4.51,4.37,4.51,7.23a7.6,7.6,0,0,1-7.83,7.84,14.48,14.48,0,0,1-5.56-1.36,42.76,42.76,0,0,0-19.13-4.67c-10.83,0-16.27,5.87-16.27,13.7,0,7.38,5.12,11.89,18.69,13.86l5.12.75c20.91,2.86,31,12.49,31,30,0,18.23-13.1,31.47-38.84,31.47A59.18,59.18,0,0,1,659.14,847.27Z"/><path class="cls-1" d="M738.12,844l29.81-82.2c2.27-6.33,5.56-10.09,11.74-10.09s9.63,3.76,11.9,10.09L821.09,844a11.18,11.18,0,0,1,.59,3.32c0,5.11-4,8.28-8.57,8.28a8.67,8.67,0,0,1-8.44-6.17l-5.56-16H760l-5.41,16a8.69,8.69,0,0,1-8.44,6.17c-4.52,0-8.59-3.17-8.59-8.28A10.85,10.85,0,0,1,738.12,844Zm55.55-26.35-13.84-39.9h-.46l-13.85,39.9Z"/><circle class="cls-2" cx="410.84" cy="334.36" r="334.36"/><path class="cls-3" d="M410.84,16.12c175.48,0,318.23,142.76,318.23,318.24S586.32,652.59,410.84,652.59,92.6,509.83,92.6,334.36,235.36,16.12,410.84,16.12m0-16.12C226.18,0,76.48,149.7,76.48,334.36s149.7,334.36,334.36,334.36S745.2,519,745.2,334.36,595.5,0,410.84,0Z"/><circle class="cls-4" cx="410.84" cy="334.36" r="289.47"/><polygon class="cls-5" points="647.88 317.81 591.57 317.81 574.17 264.25 556.76 317.81 500.45 317.81 546.01 350.91 528.61 404.47 574.17 371.37 619.73 404.47 602.33 350.91 647.88 317.81"/><polygon class="cls-5" points="428.24 317.81 410.84 264.25 393.44 317.81 337.12 317.81 382.68 350.91 365.28 404.47 410.84 371.37 456.4 404.47 439 350.91 484.56 317.81 428.24 317.81"/><polygon class="cls-5" points="264.91 317.81 247.51 264.25 230.11 317.81 173.79 317.81 219.35 350.91 201.95 404.47 247.51 371.37 293.07 404.47 275.67 350.91 321.23 317.81 264.91 317.81"/><circle class="cls-6" cx="1577.11" cy="334.36" r="334.36"/><path class="cls-7" d="M1577.11,16.12c175.47,0,318.23,142.76,318.23,318.24s-142.76,318.23-318.23,318.23-318.24-142.76-318.24-318.23S1401.63,16.12,1577.11,16.12m0-16.12c-184.67,0-334.36,149.7-334.36,334.36s149.69,334.36,334.36,334.36S1911.46,519,1911.46,334.36,1761.77,0,1577.11,0Z"/><circle class="cls-8" cx="1577.11" cy="334.36" r="289.47"/><path class="cls-5" d="M1636.19,212.94a8.65,8.65,0,0,0,8.62-8.62v-24a8.62,8.62,0,1,0-17.24,0v24A8.65,8.65,0,0,0,1636.19,212.94Z"/><path class="cls-5" d="M1466.62,363.3v116a26.87,26.87,0,0,0,26.87,26.87H1614.4a26.88,26.88,0,0,0,26.88-26.87V468.67L1484.61,312C1472.77,329.94,1466.62,346.53,1466.62,363.3Z"/><path class="cls-5" d="M1641.28,363.3a84.66,84.66,0,0,0-14.4-47.23l-39.63-58.95V212.94h26.47a4,4,0,0,0,4-4V175.73a4,4,0,0,0-4-4h-95.57a37.21,37.21,0,0,0-37.21,37.21,4,4,0,0,0,4,4h35.7v43.89l120.64,120.64Z"/><path class="cls-5" d="M1429.7,200.09a8.06,8.06,0,0,0-11.4,11.4l266.27,266.28a8.06,8.06,0,1,0,11.4-11.4Z"/><circle class="cls-9" cx="2743.37" cy="334.36" r="334.36"/><path class="cls-10" d="M2743.37,16.12c175.48,0,318.24,142.76,318.24,318.24s-142.76,318.23-318.24,318.23-318.23-142.76-318.23-318.23S2567.9,16.12,2743.37,16.12m0-16.12C2558.71,0,2409,149.7,2409,334.36s149.7,334.36,334.36,334.36S3077.73,519,3077.73,334.36,2928,0,2743.37,0Z"/><circle class="cls-11" cx="2743.37" cy="334.36" r="289.47"/><path class="cls-5" d="M2908.94,355.41l-.14-43.14-30.16-3.95A137.09,137.09,0,0,0,2857,256.49l18.31-24.33-30.65-30.45-24.2,18.44A136.87,136.87,0,0,0,2768.82,199l-4.39-30.21-43.21.12-3.89,30.18a137.06,137.06,0,0,0-51.94,21.7l-24.2-18.4L2610.74,233l18.66,23.89A136.9,136.9,0,0,0,2608,308.77l-30.24,4.56.16,43.13,30.11,3.74a137.15,137.15,0,0,0,21.37,51.66l-18,24.7L2642.07,467l24.31-18.34a136.88,136.88,0,0,0,51.34,21l4.63,30.25,43.13-.16,4-30.16A136.78,136.78,0,0,0,2821,448.22l24.62,18.11L2876,435.68l-18.46-24.18a137.06,137.06,0,0,0,21.12-51.43Zm-131.55,52c19.86,0,32.89,8.47,49.88,15.08-17.61,1.35-52.83,9.21-80.91-8.12l2.39,30.92a5.39,5.39,0,0,1-10.75.83,5.75,5.75,0,0,1,0-.83l2.39-30.91c-28.08,17.32-63.3,9.46-80.92,8.11,17-6.61,30-15.08,49.88-15.08-26.67-1.06-65.41-35.18-84-46.14,19.8,6.35,44,6.51,76.4,20.25-34.51-27.92-41.81-69.94-55.07-91.48,17.94,17.79,60.56,34.11,81.68,75.8-15.29-48.17,5.26-81.48,15.06-148.26,9.81,66.78,30.36,100.09,15.07,148.26,21.12-41.69,63.74-58,81.68-75.8-13.27,21.54-20.56,63.56-55.07,91.48,32.36-13.74,56.6-13.9,76.4-20.25C2842.8,372.25,2804.06,406.37,2777.39,407.43Z"/></g></g></svg>